<svg id="Calque_1" data-name="Calque 1" xmlns="http://www.w3.org/2000/svg" viewBox="0 0 354.33 354.33"><defs><style>.cls-1{fill:#41bab5;}</style></defs><polygon class="cls-1" points="91.49 25.82 119.92 49.47 137.66 97.05 159.63 107.19 167.51 90.86 173.44 95.64 171.17 88.6 148.08 77.62 126.96 39.89 91.49 25.82"/><polygon class="cls-1" points="174.05 88.89 239.52 88.6 245.43 99.72 183.91 125.77 174.05 88.89"/><polygon class="cls-1" points="158.25 115.35 168.39 94.12 174.48 98.56 177.11 108.78 158.25 115.35"/><path class="cls-1" d="M177.83,110.32l-4.39,1.47,6,3.56Z"/><polygon class="cls-1" points="184.47 127.5 215.85 113.96 256.74 162.79 235.72 255.52 184.47 127.5"/><polygon class="cls-1" points="235.15 259.46 194.61 159.04 100.94 192.83 96.25 238.44 235.15 259.46"/><polygon class="cls-1" points="102.82 328.16 96.25 240.88 121.78 244.63 102.82 328.16"/><polygon class="cls-1" points="213.75 258.34 235.15 261.34 231.4 273.73 245.73 326.36 226.71 296.07 219.3 328.51 213.75 258.34"/></svg>